<svg width="644" height="356" viewBox="0 0 644 356" fill="none" xmlns="http://www.w3.org/2000/svg">
<g clip-path="url(#clip0_1_2)">
<path d="M642.687 356H0.902964C0.66394 355.999 0.434947 355.904 0.266176 355.735C0.0974044 355.565 0.00262451 355.336 0.00262451 355.097C0.00262451 354.858 0.0974044 354.629 0.266176 354.46C0.434947 354.29 0.66394 354.195 0.902964 354.194H642.687C642.926 354.195 643.155 354.29 643.323 354.46C643.492 354.629 643.587 354.858 643.587 355.097C643.587 355.336 643.492 355.565 643.323 355.735C643.155 355.904 642.926 355.999 642.687 356V356Z" fill="#3F3D56"/>
<path d="M342.471 155.461C347.916 155.461 352.329 151.047 352.329 145.602C352.329 140.158 347.916 135.744 342.471 135.744C337.026 135.744 332.612 140.158 332.612 145.602C332.612 151.047 337.026 155.461 342.471 155.461Z" fill="#6C63FF"/>
<path d="M341.494 149.363C341.272 149.364 341.056 149.292 340.878 149.159L340.868 149.151L338.551 147.377C338.443 147.295 338.353 147.192 338.285 147.075C338.217 146.958 338.172 146.829 338.154 146.695C338.136 146.56 338.145 146.424 338.18 146.293C338.215 146.162 338.275 146.04 338.358 145.932C338.44 145.825 338.543 145.735 338.66 145.667C338.777 145.599 338.907 145.555 339.041 145.538C339.175 145.52 339.312 145.529 339.442 145.564C339.573 145.599 339.695 145.66 339.803 145.743L341.303 146.893L344.85 142.269C344.932 142.161 345.034 142.071 345.151 142.004C345.269 141.936 345.398 141.892 345.532 141.874C345.666 141.857 345.802 141.866 345.933 141.9C346.063 141.935 346.186 141.996 346.293 142.078L346.271 142.108L346.293 142.078C346.51 142.245 346.651 142.49 346.687 142.761C346.723 143.031 346.65 143.305 346.484 143.522L342.313 148.962C342.216 149.087 342.092 149.188 341.95 149.258C341.808 149.328 341.652 149.364 341.494 149.363V149.363Z" fill="white"/>
<path d="M342.471 184.278C347.916 184.278 352.329 179.864 352.329 174.42C352.329 168.975 347.916 164.561 342.471 164.561C337.026 164.561 332.612 168.975 332.612 174.42C332.612 179.864 337.026 184.278 342.471 184.278Z" fill="#6C63FF"/>
<path d="M341.494 178.18C341.272 178.181 341.056 178.109 340.878 177.976L340.868 177.968L338.551 176.194C338.443 176.112 338.353 176.009 338.285 175.892C338.217 175.775 338.172 175.646 338.154 175.512C338.136 175.378 338.145 175.241 338.18 175.11C338.215 174.979 338.275 174.857 338.358 174.749C338.44 174.642 338.543 174.552 338.66 174.484C338.777 174.416 338.907 174.372 339.041 174.355C339.175 174.337 339.312 174.346 339.442 174.381C339.573 174.417 339.695 174.477 339.803 174.56L341.303 175.711L344.85 171.086C344.932 170.978 345.034 170.888 345.151 170.821C345.269 170.753 345.398 170.709 345.532 170.692C345.666 170.674 345.802 170.683 345.933 170.718C346.063 170.753 346.186 170.813 346.293 170.895L346.271 170.925L346.293 170.896C346.51 171.062 346.651 171.307 346.687 171.578C346.723 171.848 346.65 172.122 346.484 172.339L342.313 177.779C342.216 177.904 342.092 178.005 341.95 178.075C341.808 178.145 341.652 178.181 341.494 178.18V178.18Z" fill="white"/>
<path d="M347.779 217.645C353.224 217.645 357.638 213.232 357.638 207.787C357.638 202.342 353.224 197.928 347.779 197.928C342.335 197.928 337.921 202.342 337.921 207.787C337.921 213.232 342.335 217.645 347.779 217.645Z" fill="#6C63FF"/>
<path d="M346.802 211.548C346.58 211.548 346.364 211.476 346.187 211.343L346.176 211.335L343.859 209.561C343.751 209.479 343.661 209.377 343.593 209.26C343.525 209.142 343.481 209.013 343.463 208.879C343.445 208.745 343.454 208.608 343.489 208.478C343.523 208.347 343.584 208.224 343.666 208.117C343.748 208.009 343.851 207.919 343.968 207.851C344.086 207.784 344.215 207.74 344.349 207.722C344.484 207.704 344.62 207.713 344.751 207.749C344.881 207.784 345.004 207.845 345.111 207.927L346.612 209.078L350.158 204.453C350.24 204.346 350.343 204.256 350.46 204.188C350.577 204.12 350.706 204.076 350.84 204.059C350.974 204.041 351.11 204.05 351.241 204.085C351.372 204.12 351.494 204.18 351.601 204.262L351.579 204.292L351.602 204.263C351.818 204.429 351.96 204.674 351.995 204.945C352.031 205.216 351.958 205.489 351.792 205.706L347.621 211.146C347.525 211.271 347.4 211.373 347.258 211.442C347.116 211.512 346.96 211.548 346.802 211.548V211.548Z" fill="white"/>
<path d="M442.843 290.097C442.74 290.097 442.676 290.095 442.654 290.093L430.414 290.095V288.29H442.698C442.982 288.3 448.785 288.464 454.131 281.977C462.098 272.309 468.641 248.375 454.565 189.258C435.639 109.768 451.424 39.5429 459.09 13.04C459.467 11.7288 459.535 10.3477 459.287 9.00591C459.039 7.6641 458.483 6.39832 457.661 5.30858C456.84 4.21883 455.777 3.33498 454.555 2.72686C453.334 2.11875 451.988 1.80303 450.623 1.80465H267.836C266.446 1.80652 265.076 2.13601 263.838 2.76641C262.599 3.39681 261.527 4.31035 260.708 5.43287C257.461 9.89953 253.005 18.4803 250.216 33.996L248.44 33.677C251.289 17.8243 255.89 8.99102 259.248 4.37193C260.235 3.01934 261.527 1.91856 263.019 1.15893C264.511 0.399303 266.161 0.00224668 267.836 4.91152e-06H450.623C452.267 -0.00157751 453.89 0.379235 455.361 1.11236C456.833 1.84548 458.114 2.91082 459.104 4.22422C460.093 5.53762 460.763 7.06308 461.062 8.68009C461.36 10.2971 461.279 11.9614 460.823 13.5414C453.198 39.9069 437.494 109.768 456.321 188.841C470.594 248.789 463.733 273.241 455.463 283.198C450.009 289.765 443.999 290.097 442.843 290.097Z" fill="#E6E6E6"/>
<path d="M409.908 323.032C409.806 323.032 409.741 323.029 409.719 323.028L397.48 323.029V321.225H409.763C410.049 321.233 415.85 321.399 421.196 314.911C429.164 305.243 435.706 281.309 421.631 222.193C402.705 142.703 418.49 72.4775 426.155 45.9746C426.533 44.6634 426.6 43.2823 426.352 41.9405C426.104 40.5987 425.548 39.3329 424.727 38.2432C423.906 37.1534 422.842 36.2696 421.621 35.6615C420.399 35.0534 419.053 34.7376 417.688 34.7392H234.901C233.511 34.7411 232.142 35.0706 230.903 35.701C229.665 36.3314 228.592 37.2449 227.773 38.3675C224.526 42.8341 220.07 51.4149 217.282 66.9306L215.505 66.6116C218.354 50.7589 222.955 41.9256 226.313 37.3065C227.3 35.9539 228.592 34.8531 230.084 34.0935C231.577 33.3339 233.227 32.9368 234.901 32.9346H417.689C419.333 32.933 420.955 33.3138 422.427 34.047C423.899 34.7801 425.18 35.8454 426.169 37.1588C427.159 38.4722 427.829 39.9977 428.127 41.6147C428.426 43.2317 428.344 44.896 427.889 46.476C420.263 72.8415 404.56 142.702 423.387 221.775C437.66 281.723 430.798 306.176 422.529 316.132C417.074 322.699 411.065 323.032 409.908 323.032Z" fill="#CCCCCC"/>
<path d="M390.451 254.713C371.622 175.641 387.327 105.774 394.956 79.414C395.41 77.8339 395.491 76.1699 395.192 74.5532C394.893 72.9366 394.223 71.4114 393.234 70.0981C392.245 68.7848 390.964 67.7192 389.493 66.9855C388.022 66.2517 386.4 65.8698 384.756 65.87H201.965C200.291 65.8716 198.641 66.268 197.15 67.027C195.658 67.786 194.367 68.8861 193.38 70.238C186.001 80.3847 170.69 114.033 187.791 207.135C196.937 256.943 196.8 290.902 193.812 313.273C192.136 325.869 189.55 334.787 187.207 340.801L186.957 341.438C186.463 342.655 186.206 343.954 186.199 345.267C186.181 346.75 186.479 348.22 187.071 349.579C187.663 350.939 188.536 352.157 189.634 353.154C190.349 353.825 191.159 354.387 192.038 354.823C192.767 355.195 193.539 355.477 194.336 355.664C195.147 355.863 195.98 355.962 196.815 355.96H376.786C376.809 355.96 376.869 355.968 376.976 355.968C378.128 355.968 384.142 355.634 389.595 349.067C397.86 339.11 404.723 314.661 390.451 254.713ZM388.26 347.846C382.914 354.337 377.112 354.17 376.832 354.163H196.815C195.374 354.162 193.955 353.809 192.682 353.133C191.409 352.458 190.321 351.481 189.512 350.288C188.801 349.256 188.324 348.082 188.113 346.847C187.902 345.612 187.963 344.346 188.291 343.136C188.377 342.785 188.489 342.44 188.625 342.105C191.302 335.227 193.286 328.098 194.548 320.826C198.825 297.507 199.621 261.523 189.566 206.809C172.594 114.397 187.602 81.2568 194.836 71.2997C195.657 70.1788 196.73 69.2667 197.968 68.637C199.206 68.0073 200.575 67.6777 201.965 67.6748H384.756C386.12 67.6739 387.465 67.9899 388.686 68.598C389.907 69.2061 390.969 70.0896 391.79 71.1787C392.611 72.2679 393.167 73.5329 393.415 74.8739C393.663 76.2149 393.596 77.5953 393.219 78.9059C385.553 105.41 369.771 175.641 388.7 255.13C402.775 314.243 396.23 338.177 388.26 347.846Z" fill="#3F3D56"/>
<path d="M303.613 151.973H209.437C207.522 151.973 205.686 151.212 204.333 149.859C202.979 148.505 202.218 146.669 202.218 144.754C202.218 142.84 202.979 141.004 204.333 139.65C205.686 138.296 207.522 137.536 209.437 137.536H303.613C305.527 137.536 307.363 138.296 308.717 139.65C310.071 141.004 310.831 142.84 310.831 144.754C310.831 146.669 310.071 148.505 308.717 149.859C307.363 151.212 305.527 151.973 303.613 151.973V151.973Z" fill="#CCCCCC"/>
<path d="M303.613 183.065H209.437C207.522 183.065 205.686 182.305 204.333 180.951C202.979 179.597 202.218 177.761 202.218 175.846C202.218 173.932 202.979 172.096 204.333 170.742C205.686 169.388 207.522 168.628 209.437 168.628H303.613C305.527 168.628 307.363 169.388 308.717 170.742C310.071 172.096 310.831 173.932 310.831 175.846C310.831 177.761 310.071 179.597 308.717 180.951C307.363 182.305 305.527 183.065 303.613 183.065V183.065Z" fill="#CCCCCC"/>
<path d="M311.196 214.916H217.02C215.106 214.916 213.27 214.155 211.916 212.801C210.562 211.448 209.802 209.612 209.802 207.697C209.802 205.783 210.562 203.947 211.916 202.593C213.27 201.239 215.106 200.479 217.02 200.479H311.196C313.111 200.479 314.947 201.239 316.301 202.593C317.654 203.947 318.415 205.783 318.415 207.697C318.415 209.612 317.654 211.448 316.301 212.801C314.947 214.155 313.111 214.916 311.196 214.916V214.916Z" fill="#CCCCCC"/>
<path d="M316.505 248.283H222.329C220.414 248.283 218.578 247.522 217.224 246.169C215.871 244.815 215.11 242.979 215.11 241.064C215.11 239.15 215.871 237.314 217.224 235.96C218.578 234.606 220.414 233.846 222.329 233.846H316.505C318.419 233.846 320.255 234.606 321.609 235.96C322.963 237.314 323.723 239.15 323.723 241.064C323.723 242.979 322.963 244.815 321.609 246.169C320.255 247.522 318.419 248.283 316.505 248.283Z" fill="#CCCCCC"/>
<path d="M316.545 95.9236H248.871C247.922 95.9246 246.983 95.7386 246.106 95.3763C245.229 95.014 244.433 94.4824 243.762 93.812C243.091 93.1416 242.558 92.3455 242.195 91.4692C241.832 90.593 241.645 89.6537 241.645 88.7051C241.645 87.7565 241.832 86.8173 242.195 85.941C242.558 85.0647 243.091 84.2686 243.762 83.5982C244.433 82.9278 245.229 82.3962 246.106 82.0339C246.983 81.6716 247.922 81.4856 248.871 81.4866H316.545C318.459 81.4866 320.295 82.2471 321.649 83.6008C323.003 84.9546 323.763 86.7906 323.763 88.7051C323.763 90.6196 323.003 92.4556 321.649 93.8094C320.295 95.1631 318.459 95.9236 316.545 95.9236Z" fill="#6C63FF"/>
<path d="M353.846 250.923C359.291 250.923 363.705 246.509 363.705 241.064C363.705 235.62 359.291 231.206 353.846 231.206C348.401 231.206 343.988 235.62 343.988 241.064C343.988 246.509 348.401 250.923 353.846 250.923Z" fill="#CCCCCC"/>
<path d="M321.055 280.892H226.879C224.964 280.892 223.128 280.131 221.775 278.777C220.421 277.424 219.66 275.588 219.66 273.673C219.66 271.759 220.421 269.923 221.775 268.569C223.128 267.215 224.964 266.455 226.879 266.455H321.055C322.969 266.455 324.805 267.215 326.159 268.569C327.513 269.923 328.273 271.759 328.273 273.673C328.273 275.588 327.513 277.424 326.159 278.777C324.805 280.131 322.969 280.892 321.055 280.892Z" fill="#CCCCCC"/>
<path d="M358.396 283.532C363.841 283.532 368.255 279.118 368.255 273.673C368.255 268.228 363.841 263.815 358.396 263.815C352.951 263.815 348.538 268.228 348.538 273.673C348.538 279.118 352.951 283.532 358.396 283.532Z" fill="#CCCCCC"/>
</g>
<defs>
<clipPath id="clip0_1_2">
<rect width="643.59" height="356" fill="white"/>
</clipPath>
</defs>
</svg>
